<?xml version="1.0" encoding="utf-8"?>
<!-- Svg Vector Icons : http://www.onlinewebfonts.com/icon -->
<!DOCTYPE svg PUBLIC "-//W3C//DTD SVG 1.1//EN" "http://www.w3.org/Graphics/SVG/1.1/DTD/svg11.dtd">
<svg version="1.1" xmlns="http://www.w3.org/2000/svg" xmlns:xlink="http://www.w3.org/1999/xlink" x="0px" y="0px" viewBox="0 0 1000 1000" enable-background="new 0 0 1000 1000" xml:space="preserve">
<metadata> Svg Vector Icons : http://www.onlinewebfonts.com/icon </metadata>
<g><g transform="translate(0.000000,511.000000) scale(0.100000,-0.100000)"><path d="M4800.6,4431.7c-63.5-41.6-468.8-742.5-2387.6-4135.5C117.5-3760.4,102.2-3788.9,100-3911.6c0-98.6,11-135.8,59.1-199.3c124.8-162.1-322-148.9,4864.9-144.6l4656.8,6.6l61.3,46c105.1,76.7,159.9,179.6,157.7,291.3c0,92-190.6,438.1-2315.3,4194.6C6049.2,2997,5247.5,4392.3,5208.1,4422.9c-41.6,30.7-103,46-197.1,52.6C4897,4482.1,4864.2,4475.5,4800.6,4431.7z M6967-43.3c1077.7-1910,1964.8-3482.8,1967-3493.7c6.6-15.3-1318.6-21.9-3938.4-21.9c-2611,0-3944.9,6.6-3938.4,21.9c15.3,46,3927.4,6963.3,3938.4,6963.3C5002.1,3426.3,5889.3,1864.5,6967-43.3z"/><path d="M4645.1,121v-1577.1h350.5h350.5V121v1577.1h-350.5h-350.5V121z"/><path d="M4645.1-2507.5V-2858h350.5h350.5v350.5v350.5h-350.5h-350.5V-2507.5z"/></g></g>
</svg>